# AST/ASF file generated using VICON BodyLanguage
# -----------------------------------------------
:version 1.10
:name VICON
:units
  mass 1.0
  length 0.45
  angle deg
:documentation
   .ast/.asf automatically generated from VICON data using
   VICON BodyBuilder and BodyLanguage model FoxedUp or BRILLIANT.MOD
:root
   order TX TY TZ RX RY RZ
   axis XYZ
   position 0 0 0  
   orientation 0 0 0 
:bonedata
  begin
     id 1 
     name lhipjoint
     direction 0.714689 -0.624256 0.315473 
     length 2.45343 
     axis 0 0 0  XYZ
  end
  begin
     id 2 
     name lfemur
     direction 0.34202 -0.939693 0  
     length 6.59069  
     axis 0 0 20  XYZ
    dof rx ry rz
    limits (-160.0 20.0)
           (-70.0 70.0)
           (-60.0 70.0)
  end
  begin
     id 3 
     name ltibia
     direction 0.34202 -0.939693 0   
     length 6.73476   
     axis 0 0 20   XYZ
    dof rx
    limits (-10.0 170.0)
  end
  begin
     id 4 
     name lfoot
     direction 0.0718085 -0.197292 0.977711   
     length 1.52607   
     axis -90 7.62852e-016 20   XYZ
    dof rx rz
    limits (-45.0 90.0)
           (-70.0 20.0)
  end
  begin
     id 5 
     name ltoes
     direction 1.53553e-011 -4.22024e-011 1   
     length 0.777832   
     axis -90 7.62852e-016 20   XYZ
    dof rx
    limits (-90.0 20.0)
  end
  begin
     id 6 
     name rhipjoint
     direction -0.727419 -0.612432 0.309497   
     length 2.50079  
     axis 0 0 0  XYZ 
  end
  begin
     id 7 
     name rfemur
     direction -0.34202 -0.939693 0   
     length 6.51665   
     axis 0 0 -20   XYZ
    dof rx ry rz
    limits (-160.0 20.0)
           (-70.0 70.0)
           (-70.0 60.0)
  end
  begin
     id 8 
     name rtibia
     direction -0.34202 -0.939693 0   
     length 6.48919   
     axis 0 0 -20   XYZ
    dof rx
    limits (-10.0 170.0)
 end
 begin
     id 9 
     name rfoot
     direction -0.112205 -0.308282 0.944655   
     length 1.68717  
     axis -90 -7.62852e-016 -20   XYZ
    dof rx rz
    limits (-45.0 90.0)
           (-20.0 70.0)
  end
  begin
     id 10 
     name rtoes
     direction -1.53583e-011 -4.21993e-011 1   
     length 0.846859   
     axis -90 -7.62852e-016 -20   XYZ
    dof rx
    limits (-90.0 20.0)
  end
  begin
     id 11 
     name lowerback
     direction -0.00119603 0.996364 -0.0851956   
     length 1.67242   
     axis 0 0 0   XYZ
    dof rx ry rz
    limits (-20.0 45.0)
           (-30.0 30.0)
           (-30.0 30.0)
  end
  begin
     id 12 
     name upperback
     direction -0.00531001 0.998318 0.0577248   
     length 1.64819   
     axis 0 0 0   XYZ
    dof rx ry rz
    limits (-20.0 45.0)
           (-30.0 30.0)
           (-30.0 30.0)
  end
  begin
     id 13 
     name thorax
     direction -0.00653676 0.995132 0.0983291   
     length 1.67429   
     axis 0 0 0   XYZ
    dof rx ry rz
    limits (-20.0 45.0)
           (-30.0 30.0)
           (-30.0 30.0)
  end
  begin
     id 14 
     name lowerneck
     direction 0.0141424 0.999886 0.00525412   
     length 1.59623   
     axis 0 0 0   XYZ
    dof rx ry rz
    limits (-20.0 45.0)
           (-30.0 30.0)
           (-30.0 30.0)
  end
  begin
     id 15 
     name upperneck
     direction -0.0640064 0.987178 -0.146232   
     length 1.59576   
     axis 0 0 0   XYZ
    dof rx ry rz
    limits (-20.0 45.0)
           (-30.0 30.0)
           (-30.0 30.0)
  end
  begin
     id 16
     name head
     direction -0.0222942 0.998496 -0.0500859  
     length 1.60959  
     axis 0 0 0   XYZ
    dof rx ry rz
    limits (-20.0 45.0)
           (-30.0 30.0)
           (-30.0 30.0)
  end
  begin
     id 17 
     name lclavicle
     direction 0.908549 0.392612 0.142806  
     length 2.80649  
     axis 0 0 0   XYZ
    dof ry rz
    limits (-20.0 10.0)
           (0.0 20.0)
  end
  begin
     id 18 
     name lhumerus
     direction 1 -4.48968e-011 1.08832e-028   
     length 4.2884   
     axis -180 -30 -90   XYZ
    dof rx ry rz
    limits (-60.0 90.0)
           (-90.0 90.0)
           (-90.0 90.0)
  end
  begin
     id 19
     name lradius
     direction 1 -4.48952e-011 -3.02642e-028   
     length 3.06552   
     axis -180 -30 -90   XYZ
    dof rx
    limits (-10.0 170.0)
  end
  begin
     id 20
     name lwrist
     direction 1 -4.49014e-011 1.58672e-027   
     length 1.53276   
     axis -1.65735e-015 90 90   XYZ
    dof ry
    limits (-180.0 0.0)
 end
  begin
     id 21 
     name lhand
     direction 1 -4.48928e-011 3.17344e-027   
     length 0.753045   
     axis -2.02492e-015 90 90   XYZ
    dof rx rz
    limits (-90.0 90.0)
           (-45.0 45.0)
  end
  begin
     id 22 
     name lfingers
     direction 1 -4.48958e-011 6.34687e-027   
     length 0.607124   
     axis -4.04985e-015 90 90   XYZ
    dof rx
    limits (0.0 90.0)
  end
  begin
     id 23
     name lthumb
     direction 0.707107 -6.34905e-011 0.707107   
     length 0.871712   
     axis -90 45 2.85299e-015   XYZ
    dof rx rz
    limits (-45.0 45.0)
           (-45.0 45.0)
  end
  begin
     id 24 
     name rclavicle
     direction -0.885098 0.45949 0.0739604   
     length 2.9478  
     axis 0 0 0   XYZ 
    dof ry rz
    limits (-10.0 20.0)
           (-20.0 0.0)
  end
  begin
     id 25 
     name rhumerus
     direction -1 -4.4898e-011 -2.61739e-027  
     length 4.52172   
     axis -180 30 90   XYZ
    dof rx ry rz
    limits (-90.0 60.0)
           (-90.0 90.0)
           (-90.0 90.0)
  end
  begin
     id 26 
     name rradius
     direction -1 -4.48945e-011 9.02552e-028   
     length 2.8914   
     axis -180 30 90   XYZ
    dof rx
    limits (-10.0 170.0)
  end
  begin
     id 27 
     name rwrist
     direction -1 -4.49018e-011 1.58672e-027   
     length 1.4457   
     axis -1.65735e-015 -90 -90   XYZ
    dof ry
    limits (-180.0 0.0)
  end
  begin
     id 28
     name rhand
     direction -1 -4.48825e-011 3.17344e-027   
     length 0.680541   
     axis -2.02492e-015 -90 -90   XYZ
    dof rx rz
    limits (-90.0 90.0)
           (-45.0 45.0)
  end
  begin
     id 29
     name rfingers
     direction -1 -4.49067e-011 6.34687e-027   
     length 0.54867   
     axis -4.04985e-015 -90 -90   XYZ
    dof rx
    limits (0.0 90.0)
  end
  begin
     id 30
     name rthumb
     direction -0.707107 -6.34833e-011 0.707107   
     length 0.787783   
     axis -90 -45 -2.85299e-015   XYZ
    dof rx rz
    limits (-45.0 45.0)
           (-45.0 45.0)
  end
:hierarchy
  begin
    root lhipjoint rhipjoint lowerback
    lhipjoint lfemur
    lfemur ltibia
    ltibia lfoot
    lfoot ltoes
    rhipjoint rfemur
    rfemur rtibia
    rtibia rfoot
    rfoot rtoes
    lowerback upperback
    upperback thorax
    thorax lowerneck lclavicle rclavicle
    lowerneck upperneck
    upperneck head
    lclavicle lhumerus
    lhumerus lradius
    lradius lwrist
    lwrist lhand lthumb
    lhand lfingers
    rclavicle rhumerus
    rhumerus rradius
    rradius rwrist
    rwrist rhand rthumb
    rhand rfingers
  end

#!OML:ASF E:\emotionWalksFemale\Project 1\Capture day 1\Session 1\Female1.ASF
:FULLY-SPECIFIED
:DEGREES
126
root 8.95734 15.5186 22.9099 178.864 8.71872 -179.684
lowerback 7.40053 1.60308 1.39926
upperback -4.47913 2.42264 0.324371
thorax -8.85524 1.14152 -0.808398
lowerneck -6.71088 -1.22057 -5.11669
upperneck 11.8948 -1.41912 4.72798
head 4.73548 -0.541122 2.22381
rclavicle 7.71533e-015 8.94531e-016
rhumerus -41.0353 4.56124 -87.6031
rradius 33.0936
rwrist 22.0925
rhand -0.730424 -53.0018
rfingers 7.12502
rthumb 24.8906 -81.4012
lclavicle 7.71533e-015 8.94531e-016
lhumerus -42.5376 -8.1767 93.1
lradius 34.6774
lwrist -12.7335
lhand -0.776056 -37.698
lfingers 7.12502
lthumb 24.8468 -9.29258
rfemur -1.67991 16.7228 25.5609
rtibia 17.6144
rfoot -12.1872 -24.8086
rtoes -10.2295
lfemur -3.90193 -17.2594 -24.1938
ltibia 21.5283
lfoot -20.5233 21.6438
ltoes -30.531
127
root 8.95861 15.5187 22.9042 178.849 8.75979 -179.717
lowerback 7.6511 1.60817 1.31594
upperback -4.65462 2.43785 0.354795
thorax -9.19919 1.15309 -0.744831
lowerneck -6.63163 -1.19511 -5.14234
upperneck 12.0014 -1.37634 4.70208
head 4.75272 -0.520155 2.22369
rclavicle -6.48535e-015 -6.36111e-015
rhumerus -41.3286 4.48646 -87.5594
rradius 33.0881
rwrist 22.3151
rhand -0.88519 -52.6441
rfingers 7.12502
rthumb 24.7422 -81.0639
lclavicle -6.48535e-015 -6.36111e-015
lhumerus -42.8032 -8.07702 93.1419
lradius 34.6643
lwrist -12.6175
lhand -0.76451 -37.6615
lfingers 7.12502
lthumb 24.8579 -9.2576
rfemur -1.66584 16.7711 25.5335
rtibia 17.6751
rfoot -12.3346 -24.7873
rtoes -9.98518
lfemur -3.82571 -17.3128 -24.2433
ltibia 21.4776
lfoot -20.6745 21.6745
ltoes -30.1841
128
root 8.9576 15.5171 22.8946 178.761 8.92175 -179.826
lowerback 6.82232 1.65153 1.41732
upperback -4.15001 2.45453 0.251361
thorax -8.15411 1.15899 -0.871614
lowerneck -6.82472 -1.16706 -5.11851
upperneck 11.617 -1.35539 4.74424
head 4.66616 -0.515854 2.23053
rclavicle -5.64051e-015 -1.98785e-016
rhumerus -40.5138 4.33867 -87.6083
rradius 32.8716
rwrist 22.5975
rhand -2.29271 -52.0789
rfingers 7.12502
rthumb 23.3926 -80.6773
lclavicle -5.64051e-015 -1.98785e-016
lhumerus -42.0059 -8.11342 92.9234
lradius 34.5505
lwrist -12.3156
lhand -0.426873 -37.574
lfingers 7.12502
lthumb 25.1814 -9.21511
rfemur -1.5717 16.7952 25.4232
rtibia 17.6792
rfoot -12.4514 -24.6645
rtoes -9.81172
lfemur -3.67352 -17.3441 -24.4397
ltibia 21.4558
lfoot -20.6165 22.0148
ltoes -30.4802
129
root 8.96145 15.5187 22.9049 178.821 8.68565 -179.855
lowerback 7.63937 1.56014 1.32369
upperback -4.6181 2.36046 0.242503
thorax -9.14836 1.11026 -0.855032
lowerneck -6.70655 -1.16881 -5.18341
upperneck 11.9841 -1.34744 4.79983
head 4.75928 -0.502308 2.26235
rclavicle 1.21756e-015 6.95746e-016
rhumerus -41.118 4.38477 -87.8052
rradius 32.853
rwrist 22.4066
rhand -2.32247 -52.8058
rfingers 7.12502
rthumb 23.3641 -81.4078
lclavicle 1.21756e-015 6.95746e-016
lhumerus -42.6706 -8.00312 92.9406
lradius 34.6207
lwrist -12.1393
lhand -0.219141 -37.5909
lfingers 7.12502
lthumb 25.3805 -9.2602
rfemur -1.64312 16.688 25.3977
rtibia 17.6354
rfoot -12.4189 -24.7634
rtoes -9.70403
lfemur -3.83483 -17.2931 -24.3872
ltibia 21.4668
lfoot -20.3524 21.9006
ltoes -31.4411
130
root 8.96484 15.5187 22.9065 178.823 8.65459 -179.751
lowerback 7.02331 1.57139 1.37379
upperback -4.22244 2.35446 0.311601
thorax -8.35658 1.11254 -0.778778
lowerneck -6.8265 -1.17227 -5.32006
upperneck 11.6064 -1.35612 4.88315
head 4.66535 -0.51688 2.3068
rclavicle 1.2424e-017 3.97569e-016
rhumerus -40.5464 4.54068 -87.8868
rradius 32.8577
rwrist 22.0425
rhand -2.01303 -53.3297
rfingers 7.12502
rthumb 23.6609 -81.8936
lclavicle 1.2424e-017 3.97569e-016
lhumerus -42.0082 -7.93887 92.8879
lradius 34.4552
lwrist -12.0354
lhand -0.209856 -37.6379
lfingers 7.12502
lthumb 25.3894 -9.30839
rfemur -1.60599 16.7318 25.5379
rtibia 17.5958
rfoot -12.5233 -24.8027
rtoes -9.30781
lfemur -3.83544 -17.2831 -24.2545
ltibia 21.4824
lfoot -20.3757 21.8625
ltoes -31.8419
131
root 8.96562 15.5174 22.9008 178.757 8.7659 -179.68
lowerback 7.4325 1.59479 1.40805
upperback -4.42927 2.41226 0.357892
thorax -8.8211 1.13652 -0.776247
lowerneck -6.75282 -1.17267 -5.31297
upperneck 11.784 -1.34619 4.8185
head 4.70661 -0.511592 2.28775
rclavicle 3.50358e-015 -2.38542e-015
rhumerus -40.9992 4.59279 -87.9672
rradius 32.9923
rwrist 22.2665
rhand -2.75419 -52.7668
rfingers 7.12502
rthumb 22.9499 -81.4208
lclavicle 3.50358e-015 -2.38542e-015
lhumerus -42.4195 -7.86045 92.9548
lradius 34.5201
lwrist -11.867
lhand -0.233223 -37.6076
lfingers 7.12502
lthumb 25.367 -9.27495
rfemur -1.47553 16.8007 25.6421
rtibia 17.5339
rfoot -12.6009 -24.7595
rtoes -9.03944
lfemur -3.72985 -17.3402 -24.2287
ltibia 21.5248
lfoot -20.4776 22.0047
ltoes -31.6536
132
root 8.96643 15.5165 22.8981 178.714 8.80301 -179.711
lowerback 8.06717 1.59995 1.34268
upperback -4.78884 2.44344 0.354208
thorax -9.59171 1.14952 -0.779064
lowerneck -6.60536 -1.15762 -5.28969
upperneck 12.0606 -1.3193 4.79985
head 4.765 -0.491328 2.2825
rclavicle 1.0312e-014 0
rhumerus -41.6859 4.61516 -88.0894
rradius 33.1743
rwrist 22.4961
rhand -3.15194 -52.5053
rfingers 7.12502
rthumb 22.5681 -81.2061
lclavicle 1.0312e-014 0
lhumerus -43.0935 -7.87872 93.0606
lradius 34.6919
lwrist -11.6203
lhand -0.277076 -37.5257
lfingers 7.12502
lthumb 25.325 -9.1871
rfemur -1.36697 16.836 25.6205
rtibia 17.4357
rfoot -12.4852 -24.7177
rtoes -9.20689
lfemur -3.68764 -17.4908 -24.2951
ltibia 21.5956
lfoot -20.6671 22.0673
ltoes -30.7821
